PathFileType	4	(X/Y/Z)	C:\Users\Biomechanik\SynologyDrive\AlexP\Athlete_03\Athlete_3_22_07_06\sq_90_EMG\marker_experimental.trc																																																																																																																																																																															
DataRate	CameraRate	NumFrames	NumMarkers	Units	OrigDataRate	OrigDataStartFrame	OrigNumFrames																																																																																																																																																																											
200	200	4	59	mm	200	346	1384																																																																																																																																																																											
Frame#	Time	BL			BR			GLAB			RFHD			LFHD			C7			T6			SPINMOL			SPINM2			SPINM3			T12			BELTOL			BELT2			BELT3			SACROL			SACR2			SACR3			LTHOL			LTH2			LTH3			LSHAOL			LSHA2			LSHA3			LHEE			LTOE			LM5			RTHOL			RTH2			RTH3			RSHAOL			RSHA2			RSHA3			RHEE			RTOE			RM5			STRN			XIPH			LACR			LUAOL			LUA2			LUA3			LLAOL			LLA2			LLA3			LWRU			RACR			RUAOL			RUA3			RLAOL			RLA2			RLA3			RWRU			RUA2			USERMO0			USERMO1			USERMO2			USERMO3			USERMO4			USERMO5		
		X1	Y1	Z1	X2	Y2	Z2	X3	Y3	Z3	X4	Y4	Z4	X5	Y5	Z5	X6	Y6	Z6	X7	Y7	Z7	X8	Y8	Z8	X9	Y9	Z9	X10	Y10	Z10	X11	Y11	Z11	X12	Y12	Z12	X13	Y13	Z13	X14	Y14	Z14	X15	Y15	Z15	X16	Y16	Z16	X17	Y17	Z17	X18	Y18	Z18	X19	Y19	Z19	X20	Y20	Z20	X21	Y21	Z21	X22	Y22	Z22	X23	Y23	Z23	X24	Y24	Z24	X25	Y25	Z25	X26	Y26	Z26	X27	Y27	Z27	X28	Y28	Z28	X29	Y29	Z29	X30	Y30	Z30	X31	Y31	Z31	X32	Y32	Z32	X33	Y33	Z33	X34	Y34	Z34	X35	Y35	Z35	X36	Y36	Z36	X37	Y37	Z37	X38	Y38	Z38	X39	Y39	Z39	X40	Y40	Z40	X41	Y41	Z41	X42	Y42	Z42	X43	Y43	Z43	X44	Y44	Z44	X45	Y45	Z45	X46	Y46	Z46	X47	Y47	Z47	X48	Y48	Z48	X49	Y49	Z49	X50	Y50	Z50	X51	Y51	Z51	X52	Y52	Z52	X53	Y53	Z53	X54	Y54	Z54	X55	Y55	Z55	X56	Y56	Z56	X57	Y57	Z57	X58	Y58	Z58	X59	Y59	Z59
																																																																																																																																																																																		
347	1.73	140.5321655	1239.479858	-2305.575195	173.7445374	1308.607178	-84.82545471	545.2006226	1375.766846	-1185.038574	487.817627	1402.714478	-1110.438965	487.7090149	1400.162109	-1264.212402	267.5061646	1369.093384	-1187.288574	93.58672333	1248.350342	-1192.571533	70.88149261	1219.884644	-1194.315918	34.96685791	1168.777954	-1144.21106	42.60080338	1164.786133	-1193.516113	23.31991577	1110.613892	-1189.727295	-9.523415565	1073.518433	-1188.656006	-22.5945282	1014.922607	-1136.216431	-26.72621918	1013.936279	-1186.203369	-34.34064484	935.5687256	-1211.369873	-26.39001083	945.9625244	-1161.864014	-55.94362259	887.4544067	-1171.472656	92.44185638	726.5812378	-1437.230591	55.32730103	655.9176636	-1429.591064	100.3510132	666.3879395	-1450.272339	85.97229767	326.6287231	-1534.034424	55.08680725	253.8932648	-1536.692261	100.7833862	268.4202271	-1550.20874	58.56721497	37.27159882	-1517.387573	263.0485229	48.65343857	-1558.85498	206.4120331	23.7064209	-1657.251587	67.0873642	698.2561646	-935.1641235	106.4348831	637.5429077	-900.7373657	62.04794693	636.9249268	-924.3635864	38.49600983	315.8605042	-847.0319824	84.72319794	259.7560425	-815.0888062	42.04051971	254.5016174	-840.9109497	47.10962296	34.49759674	-874.7094116	240.8006897	44.60821152	-793.3098145	169.8466949	37.3216362	-710.0674438	346.3053894	1219.406982	-1192.687378	312.6167603	1070.920898	-1181.672363	221.4803772	1317.864502	-1371.018921	83.36603546	1239.428345	-1395.263916	47.0654068	1200.960938	-1356.275635	44.94668198	1198.424561	-1407.296875	31.70489883	1162.846558	-1484.675903	77.67861176	1174.674927	-1529.216675	77.33506775	1207.340088	-1491.005493	129.4591064	1246.408569	-1542.673828	240.4313812	1325.913818	-1010.073853	104.3112869	1234.720703	-966.8049927	44.18894196	1216.827881	-973.3464355	52.12429047	1201.143311	-891.8572388	103.3706055	1240.173706	-898.8682251	94.63072968	1224.159424	-850.8423462	130.7792816	1255.89563	-828.5043945	nan	nan	nan	0.0590505	0.00949431	-0.0563653	0.0113072	0.083569899	-0.080013201	0.0276997	0.072206497	-0.041151602	0.147845	0.200378999	-0.803606987	0.360316008	2.963560104	-0.317263007	2.849020004	0	0
348	1.735	140.5907135	1239.657837	-2305.596191	173.8623047	1308.891357	-84.84117889	545.2303467	1375.772949	-1185.090088	487.8729858	1402.748779	-1110.479614	487.7265015	1400.179688	-1264.243652	267.5255737	1369.245728	-1187.306274	93.63922882	1248.369995	-1192.567383	70.9094696	1219.892334	-1194.303101	35.04600906	1168.767822	-1144.179443	42.64110947	1164.787964	-1193.491699	23.40221214	1110.613037	-1189.692871	-9.384673119	1073.521484	-1188.619385	-22.42570114	1014.904724	-1136.195801	-26.57475281	1013.934509	-1186.180542	-34.16952133	935.5757446	-1211.361938	-26.21211243	945.9557495	-1161.864014	-55.76992798	887.4522095	-1171.474731	92.56195068	726.5985107	-1437.286499	55.44477463	655.9406128	-1429.640991	100.4604874	666.404541	-1450.330322	86.04445648	326.6337585	-1534.078979	55.14691544	253.9035034	-1536.724609	100.846817	268.4195251	-1550.240234	58.57887268	37.27807617	-1517.375977	263.0503235	48.65025711	-1558.856323	206.4101105	23.70373154	-1657.252686	67.2938385	698.2545166	-935.2113037	106.618927	637.5330811	-900.791748	62.22315979	636.9338379	-924.4041138	38.57037354	315.8790283	-847.0549927	84.78417969	259.7684021	-815.1039429	42.10741043	254.5177765	-840.9335938	47.12091827	34.50549316	-874.7216187	240.8060608	44.60110474	-793.314209	169.8487244	37.32494736	-710.0713501	346.4574585	1219.625732	-1192.695068	312.8830261	1071.116821	-1181.679688	221.5272064	1318.024292	-1371.016479	83.43718719	1239.547607	-1395.252808	47.16138077	1201.059937	-1356.266113	45.03366089	1198.529297	-1407.28894	31.80707741	1162.947754	-1484.676514	77.77113342	1174.795288	-1529.220825	77.41077423	1207.463013	-1491.013916	129.5211029	1246.548218	-1542.686035	240.4871063	1326.109985	-1010.104431	104.3873749	1234.877319	-966.81604	44.3582077	1216.941284	-973.3202515	52.2215538	1201.276001	-891.8703613	103.452507	1240.327026	-898.8811035	94.72144318	1224.311035	-850.8560791	130.8556671	1256.072876	-828.5172729	nan	nan	nan	0.057395998	0.00956373	-0.057071298	0.011186	0.083850801	-0.0788012	0.026837301	0.072633497	-0.041556101	0.145574003	0.199272007	-0.804642022	0.363101006	2.964590073	-0.318237007	2.84875989	0	0
349	1.74	140.6471252	1239.830811	-2305.615479	173.9781647	1309.174683	-84.85565186	545.2580566	1375.78479	-1185.139648	487.9266663	1402.787964	-1110.519287	487.7417603	1400.203491	-1264.273071	267.5458374	1369.403931	-1187.324585	93.69979858	1248.390381	-1192.559814	70.93745422	1219.900513	-1194.290039	35.12664795	1168.756714	-1144.148926	42.68271637	1164.789673	-1193.468018	23.48867035	1110.61084	-1189.659302	-9.241218567	1073.524048	-1188.583862	-22.25102615	1014.884888	-1136.177368	-26.41785431	1013.932007	-1186.159912	-33.99572372	935.5841064	-1211.360352	-26.02908516	945.9489746	-1161.869019	-55.59070587	887.4500732	-1171.482056	92.68416595	726.6171265	-1437.351196	55.57134628	655.9629517	-1429.697021	100.5735245	666.423584	-1450.399536	86.12661743	326.6407166	-1534.131958	55.21426392	253.9168243	-1536.764038	100.9180832	268.4197388	-1550.278687	58.59093857	37.28509521	-1517.364746	263.0523071	48.64733887	-1558.858276	206.408371	23.70030594	-1657.254639	67.50460052	698.2504883	-935.2644653	106.8066101	637.5222168	-900.8543091	62.40163803	636.9421387	-924.4503174	38.64962769	315.9008179	-847.076355	84.85042572	259.7825928	-815.1206055	42.17873001	254.5353699	-840.9569702	47.13212585	34.51362228	-874.7334595	240.8114319	44.59423447	-793.3183594	169.8508301	37.32833099	-710.0750732	346.6101685	1219.850098	-1192.701904	313.1529846	1071.318359	-1181.687012	221.5735474	1318.187134	-1371.012939	83.50680542	1239.670044	-1395.23877	47.25638962	1201.161621	-1356.253784	45.12108231	1198.636475	-1407.277466	31.90700722	1163.053223	-1484.674805	77.86230469	1174.918945	-1529.22229	77.48609161	1207.588867	-1491.020386	129.5834503	1246.690308	-1542.695801	240.5418396	1326.30957	-1010.13501	104.4585953	1235.043335	-966.8322144	44.51460648	1217.067383	-973.3118286	52.31199265	1201.42041	-891.8876953	103.5306396	1240.488281	-898.8955078	94.80600739	1224.469238	-850.8724365	130.9269714	1256.254028	-828.5299072	nan	nan	nan	0.0555824	0.00962982	-0.057664599	0.0110625	0.084268898	-0.077712297	0.026144501	0.073176302	-0.041910999	0.143111005	0.197932005	-0.805517972	0.365583003	2.965519905	-0.319144994	2.848530054	0	0
350	1.745	140.7016754	1239.998169	-2305.632813	174.092392	1309.456543	-84.86894989	545.2831421	1375.803223	-1185.187134	487.9783325	1402.83252	-1110.557617	487.7537231	1400.234497	-1264.299927	267.5664978	1369.568481	-1187.34314	93.76638794	1248.411621	-1192.549194	70.96526337	1219.908936	-1194.276245	35.20889282	1168.744263	-1144.119019	42.72557831	1164.791138	-1193.444702	23.57916832	1110.607544	-1189.626099	-9.093097687	1073.525879	-1188.548828	-22.06996727	1014.862915	-1136.1604	-26.25524521	1013.928589	-1186.140869	-33.81941223	935.5943604	-1211.365234	-25.8399334	945.942688	-1161.87854	-55.40554428	887.4487915	-1171.493652	92.80879974	726.6369629	-1437.424072	55.70637512	655.9849854	-1429.758789	100.689827	666.4449463	-1450.479126	86.21712494	326.6493835	-1534.192017	55.2875061	253.9328918	-1536.809448	100.9957809	268.4208679	-1550.323364	58.60332108	37.29257202	-1517.354004	263.0543823	48.64472961	-1558.860962	206.4067993	23.69606209	-1657.257568	67.71983337	698.2446289	-935.3236694	106.9981995	637.5097656	-900.925354	62.58366394	636.9498901	-924.5021362	38.73314667	315.9258728	-847.0963745	84.9214325	259.798645	-815.1397095	42.25339508	254.5548401	-840.9810791	47.14312744	34.52190781	-874.7449951	240.8168182	44.58760071	-793.3223267	169.8530273	37.33181381	-710.0789185	346.763031	1220.080566	-1192.70752	313.4253845	1071.526367	-1181.693726	221.6190033	1318.352783	-1371.008423	83.57526398	1239.793945	-1395.2229	47.35068893	1201.26416	-1356.239624	45.21061707	1198.743896	-1407.263184	32.00583267	1163.161255	-1484.671143	77.95343781	1175.044922	-1529.221069	77.56209564	1207.716309	-1491.025024	129.6464233	1246.834351	-1542.703003	240.5949707	1326.512329	-1010.164795	104.5260086	1235.216797	-966.8528442	44.65292358	1217.204468	-973.324707	52.39606094	1201.575317	-891.907959	103.6050339	1240.656372	-898.9106445	94.88471985	1224.632935	-850.8904419	130.9933624	1256.438965	-828.5419312	nan	nan	nan	0.053744599	0.00969038	-0.0581365	0.0109399	0.084811099	-0.076710701	0.0256266	0.0738106	-0.0422052	0.140731007	0.196529001	-0.806236982	0.367594004	2.966320038	-0.320039988	2.848320007	0	0
